<svg xmlns="http://www.w3.org/2000/svg" width="100" height="133" viewBox="0 0 100 133"><path d="M50.00154,30.81667A15.40837,15.40837,0,1,0,34.624,15.40834,15.41108,15.41108,0,0,0,50.00154,30.81667Zm49.24074-15.488-1.81522-2.63063a4.20523,4.20523,0,0,0-5.91684-1.03234L59.74608,34.43129H40.25416L8.48861,11.66574a4.20356,4.20356,0,0,0-5.91542,1.03234L.75656,15.33013a4.33831,4.33831,0,0,0,1.03605,5.95943l32.00682,22.939V79.94674c-.03406.09528-.08373.182-.115.27871L19.8,123.7914a6.82628,6.82628,0,0,0,4.736,8.70807l.9282.25168A7.14364,7.14364,0,0,0,27.33477,133a7.4606,7.4606,0,0,0,7.05933-5.12332l13.182-41.36049h4.85524l13.182,41.36049A7.45975,7.45975,0,0,0,72.67258,133a7.133,7.133,0,0,0,1.86914-.24885l.92819-.25168a6.82626,6.82626,0,0,0,4.736-8.70807L66.32145,80.22545c-.03264-.09954-.08232-.19054-.11921-.28866V44.22716L98.20906,21.28671A4.33553,4.33553,0,0,0,99.24228,15.32871Z"/></svg>