<svg xmlns="http://www.w3.org/2000/svg" width="60" height="60" viewBox="0 0 60 60"><ellipse cx="29.99999" cy="30.01262" rx="30.00001" ry="29.98738" fill="#fff" stroke="#000" stroke-miterlimit="10"/><path d="M9.255,8.35507,11.212,10.34918M4.2676,40.18511c2.91667,2.91544,6.79293,2.46108,10.42929,2.54943M8.08073,16.9878C1.88124,21.41775.37871,30.41649.606,30.366M15.95952,17.64409c-.64394,4.70761,1.0606,9.8822,4.596,15.39756m-1.351-28.88936C21.18679,2.1708,25.0883.7825,30.22719,0M23.56052,51.89735c-.63131,1.666-.46717,3.9756-.101,6.43668m.78283-49.00715c3.5606.40387,10,.934,15.101,3.82415m-5.101,33.36979A19.76727,19.76727,0,0,0,47.62617,48.7926M43.33324,23.44973A69.37636,69.37636,0,0,1,32.32315,35.26294M46.32566,8.51914a22.69632,22.69632,0,0,0-6.3005-6.73959M54.49485,17.947a5.174,5.174,0,0,1,3.66162,1.77956m-5.5303,6.24737c1.99495,3.74842,2.28535,9.06184,2.57575,14.38788" fill="none" stroke="#000" stroke-miterlimit="10"/><path d="M9.49487,8.557A48.14056,48.14056,0,0,1,20.303,3.20572c1.7803,1.47665,3.19444,3.87463,4.697,6.20951a96.44841,96.44841,0,0,0-9.14141,9.54144c-3.4596-.31553-5.17677-.02524-9.34344-.75726A20.00211,20.00211,0,0,1,9.49487,8.557Zm36.66665-.50483c3.42172,3.13,6.7803,6.28523,9.14141,9.94531-.69444,3.30668-1.32575,6.97938-2.27272,8.88515-2.95455-.44174-6.76768-1.57762-10.35353-2.52419-1.74243-4.50568-2.91667-7.8881-4.29293-11.66176A32.664,32.664,0,0,1,46.16152,8.05217ZM4.83578,46.33151A29.97793,29.97793,0,0,1,.06306,28.76315l.745-.08835c.68181,4.31637,1.56565,8.50652,3.92676,11.71224a9.76276,9.76276,0,0,0,.64394,5.7804ZM19.94941,32.13294c4.60859.75726,9.053,1.51451,13.38384,2.27177,1.33838,4.20278,1.51515,8.41818,1.96969,12.621-3.3207,2.75137-7.89141,3.62222-11.91919,5.3008-4.697-3.029-6.60353-6.41144-9.29292-9.69289A48.41272,48.41272,0,0,1,19.94941,32.13294ZM57.99233,40.69A29.99,29.99,0,0,1,46.313,55.16618l-1.46465-.06311a11.59652,11.59652,0,0,0,1.4899-6.159c2.92929-1.40093,5.85858-5.8435,8.78788-9.74338A12.29158,12.29158,0,0,1,57.99233,40.69ZM29.11608,59.96214A30.01019,30.01019,0,0,1,16.5782,56.79428c2.51263.934,4.63384,1.80479,6.84343,1.04754C24.09083,58.78839,25.64385,59.533,29.11608,59.96214Z" stroke="#000" stroke-miterlimit="10"/></svg>